<svg width="280" height="282" viewBox="0 0 280 282" fill="none" xmlns="http://www.w3.org/2000/svg">
<g filter="url(#filter0_d_798_10235)">
<path d="M139.866 31.8999C112.291 31.9019 85.8469 42.974 66.3497 62.6806C46.8525 82.3872 35.8995 109.114 35.8999 136.982C35.8995 164.85 46.8525 191.577 66.3497 211.284C85.8469 230.991 112.291 242.063 139.866 242.065C153.52 242.065 167.041 239.347 179.655 234.066C192.27 228.785 203.733 221.045 213.388 211.287C223.043 201.529 230.701 189.945 235.927 177.196C241.152 164.447 243.841 150.782 243.841 136.982C243.841 123.183 241.152 109.518 235.927 96.7687C230.701 84.0195 223.043 72.4352 213.388 62.6773C203.733 52.9195 192.27 45.1792 179.655 39.8984C167.041 34.6176 153.52 31.8997 139.866 31.8999ZM140.82 64.046C150.538 64.1751 160.13 66.2863 169.021 70.2531C177.911 74.2199 185.918 79.9605 192.56 87.1308L157.742 115.038C153.322 111.36 147.895 109.133 142.188 108.655C136.481 108.178 130.766 109.473 125.807 112.367C122.609 114.234 119.806 116.719 117.558 119.68C115.311 122.641 113.662 126.021 112.707 129.626C111.751 133.231 111.508 136.991 111.991 140.691C112.473 144.391 113.672 147.959 115.519 151.191C117.365 154.424 119.823 157.257 122.753 159.53C125.683 161.802 129.027 163.47 132.594 164.436C136.161 165.402 139.882 165.649 143.543 165.162C147.205 164.675 150.736 163.464 153.934 161.597C158.818 158.746 162.741 154.475 165.192 149.342C167.644 144.208 168.511 138.447 167.681 132.809L209.088 116.3C213.682 132.006 212.913 148.818 206.903 164.029C200.894 179.24 189.994 191.964 175.959 200.152C167.75 204.943 158.688 208.052 149.291 209.302C139.893 210.553 130.344 209.92 121.188 207.441C112.032 204.961 103.449 200.683 95.9294 194.851C88.4097 189.019 82.1002 181.747 77.3614 173.45C67.792 156.697 65.1995 136.787 70.1542 118.101C75.109 99.4158 87.2052 83.4846 103.782 73.8123C115.033 67.2471 127.829 63.873 140.82 64.046Z" fill="white"/>
</g>
<defs>
<filter id="filter0_d_798_10235" x="-9.91821e-05" y="-9.91821e-05" width="279.741" height="281.965" filterUnits="userSpaceOnUse" color-interpolation-filters="sRGB">
<feFlood flood-opacity="0" result="BackgroundImageFix"/>
<feColorMatrix in="SourceAlpha" type="matrix" values="0 0 0 0 0 0 0 0 0 0 0 0 0 0 0 0 0 0 127 0" result="hardAlpha"/>
<feOffset dy="4"/>
<feGaussianBlur stdDeviation="17.95"/>
<feComposite in2="hardAlpha" operator="out"/>
<feColorMatrix type="matrix" values="0 0 0 0 1 0 0 0 0 1 0 0 0 0 1 0 0 0 0.2 0"/>
<feBlend mode="normal" in2="BackgroundImageFix" result="effect1_dropShadow_798_10235"/>
<feBlend mode="normal" in="SourceGraphic" in2="effect1_dropShadow_798_10235" result="shape"/>
</filter>
</defs>
</svg>
